<?xml version="1.0" encoding="utf-8"?>
<svg xmlns="http://www.w3.org/2000/svg" xmlns:xlink="http://www.w3.org/1999/xlink" width="790" height="444" viewBox="0 0 3160 1776">
<defs>
  <clipPath id="clip370">
    <rect x="0" y="0" width="3160" height="1776"/>
  </clipPath>
</defs>
<path clip-path="url(#clip370)" d="M0 1776 L3160 1776 L3160 7.99361e-15 L0 7.99361e-15  Z" fill="#ffffff" fill-rule="evenodd" fill-opacity="1"/>
<defs>
  <clipPath id="clip371">
    <rect x="632" y="0" width="2213" height="1776"/>
  </clipPath>
</defs>
<path clip-path="url(#clip370)" d="M238.578 1603.12 L3049.76 1603.12 L3049.76 176.971 L238.578 176.971  Z" fill="#ffffff" fill-rule="evenodd" fill-opacity="1"/>
<defs>
  <clipPath id="clip372">
    <rect x="238" y="176" width="2812" height="1427"/>
  </clipPath>
</defs>
<polyline clip-path="url(#clip372)" style="stroke:#000000; stroke-linecap:round; stroke-linejoin:round; stroke-width:2; stroke-opacity:0.1; fill:none" points="949.186,1603.12 949.186,176.971 "/>
<polyline clip-path="url(#clip372)" style="stroke:#000000; stroke-linecap:round; stroke-linejoin:round; stroke-width:2; stroke-opacity:0.1; fill:none" points="2339.16,1603.12 2339.16,176.971 "/>
<polyline clip-path="url(#clip372)" style="stroke:#000000; stroke-linecap:round; stroke-linejoin:round; stroke-width:2; stroke-opacity:0.1; fill:none" points="238.578,1603.12 3049.76,1603.12 "/>
<polyline clip-path="url(#clip372)" style="stroke:#000000; stroke-linecap:round; stroke-linejoin:round; stroke-width:2; stroke-opacity:0.1; fill:none" points="238.578,1317.89 3049.76,1317.89 "/>
<polyline clip-path="url(#clip372)" style="stroke:#000000; stroke-linecap:round; stroke-linejoin:round; stroke-width:2; stroke-opacity:0.1; fill:none" points="238.578,1032.66 3049.76,1032.66 "/>
<polyline clip-path="url(#clip372)" style="stroke:#000000; stroke-linecap:round; stroke-linejoin:round; stroke-width:2; stroke-opacity:0.1; fill:none" points="238.578,747.431 3049.76,747.431 "/>
<polyline clip-path="url(#clip372)" style="stroke:#000000; stroke-linecap:round; stroke-linejoin:round; stroke-width:2; stroke-opacity:0.1; fill:none" points="238.578,462.201 3049.76,462.201 "/>
<polyline clip-path="url(#clip372)" style="stroke:#000000; stroke-linecap:round; stroke-linejoin:round; stroke-width:2; stroke-opacity:0.1; fill:none" points="238.578,176.971 3049.76,176.971 "/>
<polyline clip-path="url(#clip370)" style="stroke:#000000; stroke-linecap:round; stroke-linejoin:round; stroke-width:4; stroke-opacity:1; fill:none" points="238.578,1603.12 3049.76,1603.12 "/>
<polyline clip-path="url(#clip370)" style="stroke:#000000; stroke-linecap:round; stroke-linejoin:round; stroke-width:4; stroke-opacity:1; fill:none" points="949.186,1603.12 949.186,1584.22 "/>
<polyline clip-path="url(#clip370)" style="stroke:#000000; stroke-linecap:round; stroke-linejoin:round; stroke-width:4; stroke-opacity:1; fill:none" points="2339.16,1603.12 2339.16,1584.22 "/>
<path clip-path="url(#clip370)" d="M785.507 1637.04 L805.368 1637.04 L805.368 1640.98 L790.183 1640.98 L790.183 1651.16 L803.886 1651.16 L803.886 1655.1 L790.183 1655.1 L790.183 1671.6 L785.507 1671.6 L785.507 1637.04 Z" fill="#000000" fill-rule="nonzero" fill-opacity="1" /><path clip-path="url(#clip370)" d="M832.173 1657.57 L832.173 1659.66 L812.59 1659.66 Q812.868 1664.05 815.229 1666.37 Q817.613 1668.66 821.849 1668.66 Q824.303 1668.66 826.595 1668.06 Q828.909 1667.46 831.178 1666.25 L831.178 1670.28 Q828.886 1671.25 826.479 1671.76 Q824.071 1672.27 821.595 1672.27 Q815.391 1672.27 811.757 1668.66 Q808.146 1665.05 808.146 1658.89 Q808.146 1652.53 811.571 1648.8 Q815.02 1645.05 820.854 1645.05 Q826.085 1645.05 829.118 1648.43 Q832.173 1651.79 832.173 1657.57 M827.914 1656.32 Q827.868 1652.83 825.946 1650.74 Q824.048 1648.66 820.9 1648.66 Q817.335 1648.66 815.183 1650.67 Q813.053 1652.69 812.729 1656.35 L827.914 1656.32 Z" fill="#000000" fill-rule="nonzero" fill-opacity="1" /><path clip-path="url(#clip370)" d="M859.349 1650.65 Q860.946 1647.78 863.168 1646.42 Q865.391 1645.05 868.4 1645.05 Q872.451 1645.05 874.65 1647.9 Q876.849 1650.72 876.849 1655.95 L876.849 1671.6 L872.566 1671.6 L872.566 1656.09 Q872.566 1652.36 871.247 1650.56 Q869.928 1648.75 867.219 1648.75 Q863.909 1648.75 861.988 1650.95 Q860.067 1653.15 860.067 1656.95 L860.067 1671.6 L855.784 1671.6 L855.784 1656.09 Q855.784 1652.34 854.465 1650.56 Q853.145 1648.75 850.391 1648.75 Q847.127 1648.75 845.206 1650.98 Q843.284 1653.17 843.284 1656.95 L843.284 1671.6 L839.002 1671.6 L839.002 1645.67 L843.284 1645.67 L843.284 1649.7 Q844.743 1647.32 846.78 1646.18 Q848.817 1645.05 851.618 1645.05 Q854.442 1645.05 856.409 1646.48 Q858.4 1647.92 859.349 1650.65 Z" fill="#000000" fill-rule="nonzero" fill-opacity="1" /><path clip-path="url(#clip370)" d="M897.127 1658.57 Q891.965 1658.57 889.974 1659.75 Q887.983 1660.93 887.983 1663.78 Q887.983 1666.04 889.465 1667.39 Q890.969 1668.71 893.539 1668.71 Q897.08 1668.71 899.21 1666.21 Q901.363 1663.68 901.363 1659.52 L901.363 1658.57 L897.127 1658.57 M905.622 1656.81 L905.622 1671.6 L901.363 1671.6 L901.363 1667.67 Q899.904 1670.03 897.728 1671.16 Q895.552 1672.27 892.404 1672.27 Q888.423 1672.27 886.062 1670.05 Q883.724 1667.8 883.724 1664.05 Q883.724 1659.68 886.64 1657.46 Q889.58 1655.23 895.39 1655.23 L901.363 1655.23 L901.363 1654.82 Q901.363 1651.88 899.418 1650.28 Q897.497 1648.66 894.002 1648.66 Q891.779 1648.66 889.673 1649.19 Q887.566 1649.73 885.622 1650.79 L885.622 1646.86 Q887.96 1645.95 890.159 1645.51 Q892.358 1645.05 894.441 1645.05 Q900.066 1645.05 902.844 1647.97 Q905.622 1650.88 905.622 1656.81 Z" fill="#000000" fill-rule="nonzero" fill-opacity="1" /><path clip-path="url(#clip370)" d="M914.395 1635.58 L918.654 1635.58 L918.654 1671.6 L914.395 1671.6 L914.395 1635.58 Z" fill="#000000" fill-rule="nonzero" fill-opacity="1" /><path clip-path="url(#clip370)" d="M949.742 1657.57 L949.742 1659.66 L930.159 1659.66 Q930.437 1664.05 932.798 1666.37 Q935.182 1668.66 939.418 1668.66 Q941.872 1668.66 944.163 1668.06 Q946.478 1667.46 948.747 1666.25 L948.747 1670.28 Q946.455 1671.25 944.048 1671.76 Q941.64 1672.27 939.163 1672.27 Q932.96 1672.27 929.325 1668.66 Q925.714 1665.05 925.714 1658.89 Q925.714 1652.53 929.14 1648.8 Q932.589 1645.05 938.423 1645.05 Q943.654 1645.05 946.686 1648.43 Q949.742 1651.79 949.742 1657.57 M945.483 1656.32 Q945.436 1652.83 943.515 1650.74 Q941.617 1648.66 938.469 1648.66 Q934.904 1648.66 932.751 1650.67 Q930.622 1652.69 930.298 1656.35 L945.483 1656.32 Z" fill="#000000" fill-rule="nonzero" fill-opacity="1" /><path clip-path="url(#clip370)" d="M967.196 1637.04 L996.432 1637.04 L996.432 1640.98 L984.163 1640.98 L984.163 1671.6 L979.464 1671.6 L979.464 1640.98 L967.196 1640.98 L967.196 1637.04 Z" fill="#000000" fill-rule="nonzero" fill-opacity="1" /><path clip-path="url(#clip370)" d="M1004.7 1658.57 Q999.533 1658.57 997.543 1659.75 Q995.552 1660.93 995.552 1663.78 Q995.552 1666.04 997.033 1667.39 Q998.538 1668.71 1001.11 1668.71 Q1004.65 1668.71 1006.78 1666.21 Q1008.93 1663.68 1008.93 1659.52 L1008.93 1658.57 L1004.7 1658.57 M1013.19 1656.81 L1013.19 1671.6 L1008.93 1671.6 L1008.93 1667.67 Q1007.47 1670.03 1005.3 1671.16 Q1003.12 1672.27 999.973 1672.27 Q995.992 1672.27 993.631 1670.05 Q991.293 1667.8 991.293 1664.05 Q991.293 1659.68 994.209 1657.46 Q997.149 1655.23 1002.96 1655.23 L1008.93 1655.23 L1008.93 1654.82 Q1008.93 1651.88 1006.99 1650.28 Q1005.07 1648.66 1001.57 1648.66 Q999.348 1648.66 997.242 1649.19 Q995.135 1649.73 993.191 1650.79 L993.191 1646.86 Q995.529 1645.95 997.728 1645.51 Q999.927 1645.05 1002.01 1645.05 Q1007.64 1645.05 1010.41 1647.97 Q1013.19 1650.88 1013.19 1656.81 Z" fill="#000000" fill-rule="nonzero" fill-opacity="1" /><path clip-path="url(#clip370)" d="M1036.99 1649.66 Q1036.27 1649.24 1035.41 1649.05 Q1034.58 1648.85 1033.56 1648.85 Q1029.95 1648.85 1028.01 1651.21 Q1026.08 1653.54 1026.08 1657.94 L1026.08 1671.6 L1021.8 1671.6 L1021.8 1645.67 L1026.08 1645.67 L1026.08 1649.7 Q1027.43 1647.34 1029.58 1646.21 Q1031.73 1645.05 1034.81 1645.05 Q1035.25 1645.05 1035.78 1645.12 Q1036.32 1645.17 1036.96 1645.28 L1036.99 1649.66 Z" fill="#000000" fill-rule="nonzero" fill-opacity="1" /><path clip-path="url(#clip370)" d="M1057.68 1658.34 Q1057.68 1653.71 1055.76 1651.16 Q1053.86 1648.61 1050.41 1648.61 Q1046.99 1648.61 1045.07 1651.16 Q1043.17 1653.71 1043.17 1658.34 Q1043.17 1662.94 1045.07 1665.49 Q1046.99 1668.04 1050.41 1668.04 Q1053.86 1668.04 1055.76 1665.49 Q1057.68 1662.94 1057.68 1658.34 M1061.94 1668.38 Q1061.94 1675 1059 1678.22 Q1056.06 1681.46 1050 1681.46 Q1047.75 1681.46 1045.76 1681.11 Q1043.77 1680.79 1041.89 1680.1 L1041.89 1675.95 Q1043.77 1676.97 1045.6 1677.46 Q1047.43 1677.94 1049.32 1677.94 Q1053.51 1677.94 1055.6 1675.74 Q1057.68 1673.57 1057.68 1669.15 L1057.68 1667.04 Q1056.36 1669.33 1054.3 1670.47 Q1052.24 1671.6 1049.37 1671.6 Q1044.6 1671.6 1041.69 1667.97 Q1038.77 1664.33 1038.77 1658.34 Q1038.77 1652.32 1041.69 1648.68 Q1044.6 1645.05 1049.37 1645.05 Q1052.24 1645.05 1054.3 1646.18 Q1056.36 1647.32 1057.68 1649.61 L1057.68 1645.67 L1061.94 1645.67 L1061.94 1668.38 Z" fill="#000000" fill-rule="nonzero" fill-opacity="1" /><path clip-path="url(#clip370)" d="M1092.89 1657.57 L1092.89 1659.66 L1073.31 1659.66 Q1073.58 1664.05 1075.95 1666.37 Q1078.33 1668.66 1082.57 1668.66 Q1085.02 1668.66 1087.31 1668.06 Q1089.63 1667.46 1091.89 1666.25 L1091.89 1670.28 Q1089.6 1671.25 1087.19 1671.76 Q1084.79 1672.27 1082.31 1672.27 Q1076.11 1672.27 1072.47 1668.66 Q1068.86 1665.05 1068.86 1658.89 Q1068.86 1652.53 1072.29 1648.8 Q1075.74 1645.05 1081.57 1645.05 Q1086.8 1645.05 1089.83 1648.43 Q1092.89 1651.79 1092.89 1657.57 M1088.63 1656.32 Q1088.58 1652.83 1086.66 1650.74 Q1084.76 1648.66 1081.62 1648.66 Q1078.05 1648.66 1075.9 1650.67 Q1073.77 1652.69 1073.45 1656.35 L1088.63 1656.32 Z" fill="#000000" fill-rule="nonzero" fill-opacity="1" /><path clip-path="url(#clip370)" d="M1104.09 1638.31 L1104.09 1645.67 L1112.87 1645.67 L1112.87 1648.98 L1104.09 1648.98 L1104.09 1663.06 Q1104.09 1666.23 1104.95 1667.13 Q1105.83 1668.04 1108.49 1668.04 L1112.87 1668.04 L1112.87 1671.6 L1108.49 1671.6 Q1103.56 1671.6 1101.69 1669.77 Q1099.81 1667.92 1099.81 1663.06 L1099.81 1648.98 L1096.69 1648.98 L1096.69 1645.67 L1099.81 1645.67 L1099.81 1638.31 L1104.09 1638.31 Z" fill="#000000" fill-rule="nonzero" fill-opacity="1" /><path clip-path="url(#clip370)" d="M2205.04 1637.04 L2212 1637.04 L2220.82 1660.56 L2229.69 1637.04 L2236.66 1637.04 L2236.66 1671.6 L2232.1 1671.6 L2232.1 1641.25 L2223.18 1664.96 L2218.49 1664.96 L2209.57 1641.25 L2209.57 1671.6 L2205.04 1671.6 L2205.04 1637.04 Z" fill="#000000" fill-rule="nonzero" fill-opacity="1" /><path clip-path="url(#clip370)" d="M2257.54 1658.57 Q2252.37 1658.57 2250.38 1659.75 Q2248.39 1660.93 2248.39 1663.78 Q2248.39 1666.04 2249.87 1667.39 Q2251.38 1668.71 2253.95 1668.71 Q2257.49 1668.71 2259.62 1666.21 Q2261.77 1663.68 2261.77 1659.52 L2261.77 1658.57 L2257.54 1658.57 M2266.03 1656.81 L2266.03 1671.6 L2261.77 1671.6 L2261.77 1667.67 Q2260.31 1670.03 2258.14 1671.16 Q2255.96 1672.27 2252.81 1672.27 Q2248.83 1672.27 2246.47 1670.05 Q2244.13 1667.8 2244.13 1664.05 Q2244.13 1659.68 2247.05 1657.46 Q2249.99 1655.23 2255.8 1655.23 L2261.77 1655.23 L2261.77 1654.82 Q2261.77 1651.88 2259.83 1650.28 Q2257.91 1648.66 2254.41 1648.66 Q2252.19 1648.66 2250.08 1649.19 Q2247.98 1649.73 2246.03 1650.79 L2246.03 1646.86 Q2248.37 1645.95 2250.57 1645.51 Q2252.77 1645.05 2254.85 1645.05 Q2260.48 1645.05 2263.25 1647.97 Q2266.03 1650.88 2266.03 1656.81 Z" fill="#000000" fill-rule="nonzero" fill-opacity="1" /><path clip-path="url(#clip370)" d="M2274.8 1635.58 L2279.06 1635.58 L2279.06 1671.6 L2274.8 1671.6 L2274.8 1635.58 Z" fill="#000000" fill-rule="nonzero" fill-opacity="1" /><path clip-path="url(#clip370)" d="M2310.15 1657.57 L2310.15 1659.66 L2290.57 1659.66 Q2290.85 1664.05 2293.21 1666.37 Q2295.59 1668.66 2299.83 1668.66 Q2302.28 1668.66 2304.57 1668.06 Q2306.89 1667.46 2309.16 1666.25 L2309.16 1670.28 Q2306.86 1671.25 2304.46 1671.76 Q2302.05 1672.27 2299.57 1672.27 Q2293.37 1672.27 2289.73 1668.66 Q2286.12 1665.05 2286.12 1658.89 Q2286.12 1652.53 2289.55 1648.8 Q2293 1645.05 2298.83 1645.05 Q2304.06 1645.05 2307.1 1648.43 Q2310.15 1651.79 2310.15 1657.57 M2305.89 1656.32 Q2305.85 1652.83 2303.92 1650.74 Q2302.03 1648.66 2298.88 1648.66 Q2295.31 1648.66 2293.16 1650.67 Q2291.03 1652.69 2290.71 1656.35 L2305.89 1656.32 Z" fill="#000000" fill-rule="nonzero" fill-opacity="1" /><path clip-path="url(#clip370)" d="M2327.6 1637.04 L2356.84 1637.04 L2356.84 1640.98 L2344.57 1640.98 L2344.57 1671.6 L2339.87 1671.6 L2339.87 1640.98 L2327.6 1640.98 L2327.6 1637.04 Z" fill="#000000" fill-rule="nonzero" fill-opacity="1" /><path clip-path="url(#clip370)" d="M2365.1 1658.57 Q2359.94 1658.57 2357.95 1659.75 Q2355.96 1660.93 2355.96 1663.78 Q2355.96 1666.04 2357.44 1667.39 Q2358.95 1668.71 2361.52 1668.71 Q2365.06 1668.71 2367.19 1666.21 Q2369.34 1663.68 2369.34 1659.52 L2369.34 1658.57 L2365.1 1658.57 M2373.6 1656.81 L2373.6 1671.6 L2369.34 1671.6 L2369.34 1667.67 Q2367.88 1670.03 2365.71 1671.16 Q2363.53 1672.27 2360.38 1672.27 Q2356.4 1672.27 2354.04 1670.05 Q2351.7 1667.8 2351.7 1664.05 Q2351.7 1659.68 2354.62 1657.46 Q2357.56 1655.23 2363.37 1655.23 L2369.34 1655.23 L2369.34 1654.82 Q2369.34 1651.88 2367.4 1650.28 Q2365.48 1648.66 2361.98 1648.66 Q2359.76 1648.66 2357.65 1649.19 Q2355.54 1649.73 2353.6 1650.79 L2353.6 1646.86 Q2355.94 1645.95 2358.14 1645.51 Q2360.34 1645.05 2362.42 1645.05 Q2368.04 1645.05 2370.82 1647.97 Q2373.6 1650.88 2373.6 1656.81 Z" fill="#000000" fill-rule="nonzero" fill-opacity="1" /><path clip-path="url(#clip370)" d="M2397.4 1649.66 Q2396.68 1649.24 2395.82 1649.05 Q2394.99 1648.85 2393.97 1648.85 Q2390.36 1648.85 2388.41 1651.21 Q2386.49 1653.54 2386.49 1657.94 L2386.49 1671.6 L2382.21 1671.6 L2382.21 1645.67 L2386.49 1645.67 L2386.49 1649.7 Q2387.84 1647.34 2389.99 1646.21 Q2392.14 1645.05 2395.22 1645.05 Q2395.66 1645.05 2396.19 1645.12 Q2396.72 1645.17 2397.37 1645.28 L2397.4 1649.66 Z" fill="#000000" fill-rule="nonzero" fill-opacity="1" /><path clip-path="url(#clip370)" d="M2418.09 1658.34 Q2418.09 1653.71 2416.17 1651.16 Q2414.27 1648.61 2410.82 1648.61 Q2407.4 1648.61 2405.47 1651.16 Q2403.58 1653.71 2403.58 1658.34 Q2403.58 1662.94 2405.47 1665.49 Q2407.4 1668.04 2410.82 1668.04 Q2414.27 1668.04 2416.17 1665.49 Q2418.09 1662.94 2418.09 1658.34 M2422.35 1668.38 Q2422.35 1675 2419.41 1678.22 Q2416.47 1681.46 2410.41 1681.46 Q2408.16 1681.46 2406.17 1681.11 Q2404.18 1680.79 2402.3 1680.1 L2402.3 1675.95 Q2404.18 1676.97 2406.01 1677.46 Q2407.84 1677.94 2409.73 1677.94 Q2413.92 1677.94 2416.01 1675.74 Q2418.09 1673.57 2418.09 1669.15 L2418.09 1667.04 Q2416.77 1669.33 2414.71 1670.47 Q2412.65 1671.6 2409.78 1671.6 Q2405.01 1671.6 2402.1 1667.97 Q2399.18 1664.33 2399.18 1658.34 Q2399.18 1652.32 2402.1 1648.68 Q2405.01 1645.05 2409.78 1645.05 Q2412.65 1645.05 2414.71 1646.18 Q2416.77 1647.32 2418.09 1649.61 L2418.09 1645.67 L2422.35 1645.67 L2422.35 1668.38 Z" fill="#000000" fill-rule="nonzero" fill-opacity="1" /><path clip-path="url(#clip370)" d="M2453.3 1657.57 L2453.3 1659.66 L2433.72 1659.66 Q2433.99 1664.05 2436.35 1666.37 Q2438.74 1668.66 2442.97 1668.66 Q2445.43 1668.66 2447.72 1668.06 Q2450.03 1667.46 2452.3 1666.25 L2452.3 1670.28 Q2450.01 1671.25 2447.6 1671.76 Q2445.2 1672.27 2442.72 1672.27 Q2436.52 1672.27 2432.88 1668.66 Q2429.27 1665.05 2429.27 1658.89 Q2429.27 1652.53 2432.7 1648.8 Q2436.15 1645.05 2441.98 1645.05 Q2447.21 1645.05 2450.24 1648.43 Q2453.3 1651.79 2453.3 1657.57 M2449.04 1656.32 Q2448.99 1652.83 2447.07 1650.74 Q2445.17 1648.66 2442.03 1648.66 Q2438.46 1648.66 2436.31 1650.67 Q2434.18 1652.69 2433.85 1656.35 L2449.04 1656.32 Z" fill="#000000" fill-rule="nonzero" fill-opacity="1" /><path clip-path="url(#clip370)" d="M2464.5 1638.31 L2464.5 1645.67 L2473.28 1645.67 L2473.28 1648.98 L2464.5 1648.98 L2464.5 1663.06 Q2464.5 1666.23 2465.36 1667.13 Q2466.24 1668.04 2468.9 1668.04 L2473.28 1668.04 L2473.28 1671.6 L2468.9 1671.6 Q2463.97 1671.6 2462.09 1669.77 Q2460.22 1667.92 2460.22 1663.06 L2460.22 1648.98 L2457.1 1648.98 L2457.1 1645.67 L2460.22 1645.67 L2460.22 1638.31 L2464.5 1638.31 Z" fill="#000000" fill-rule="nonzero" fill-opacity="1" /><polyline clip-path="url(#clip370)" style="stroke:#000000; stroke-linecap:round; stroke-linejoin:round; stroke-width:4; stroke-opacity:1; fill:none" points="238.578,1603.12 238.578,176.971 "/>
<polyline clip-path="url(#clip370)" style="stroke:#000000; stroke-linecap:round; stroke-linejoin:round; stroke-width:4; stroke-opacity:1; fill:none" points="238.578,1603.12 257.476,1603.12 "/>
<polyline clip-path="url(#clip370)" style="stroke:#000000; stroke-linecap:round; stroke-linejoin:round; stroke-width:4; stroke-opacity:1; fill:none" points="238.578,1317.89 257.476,1317.89 "/>
<polyline clip-path="url(#clip370)" style="stroke:#000000; stroke-linecap:round; stroke-linejoin:round; stroke-width:4; stroke-opacity:1; fill:none" points="238.578,1032.66 257.476,1032.66 "/>
<polyline clip-path="url(#clip370)" style="stroke:#000000; stroke-linecap:round; stroke-linejoin:round; stroke-width:4; stroke-opacity:1; fill:none" points="238.578,747.431 257.476,747.431 "/>
<polyline clip-path="url(#clip370)" style="stroke:#000000; stroke-linecap:round; stroke-linejoin:round; stroke-width:4; stroke-opacity:1; fill:none" points="238.578,462.201 257.476,462.201 "/>
<polyline clip-path="url(#clip370)" style="stroke:#000000; stroke-linecap:round; stroke-linejoin:round; stroke-width:4; stroke-opacity:1; fill:none" points="238.578,176.971 257.476,176.971 "/>
<path clip-path="url(#clip370)" d="M179.234 1588.92 Q175.623 1588.92 173.794 1592.48 Q171.989 1596.03 171.989 1603.16 Q171.989 1610.26 173.794 1613.83 Q175.623 1617.37 179.234 1617.37 Q182.868 1617.37 184.674 1613.83 Q186.503 1610.26 186.503 1603.16 Q186.503 1596.03 184.674 1592.48 Q182.868 1588.92 179.234 1588.92 M179.234 1585.22 Q185.044 1585.22 188.1 1589.82 Q191.178 1594.41 191.178 1603.16 Q191.178 1611.88 188.1 1616.49 Q185.044 1621.07 179.234 1621.07 Q173.424 1621.07 170.345 1616.49 Q167.29 1611.88 167.29 1603.16 Q167.29 1594.41 170.345 1589.82 Q173.424 1585.22 179.234 1585.22 Z" fill="#000000" fill-rule="nonzero" fill-opacity="1" /><path clip-path="url(#clip370)" d="M171.271 1331.24 L178.91 1331.24 L178.91 1304.87 L170.6 1306.54 L170.6 1302.28 L178.864 1300.61 L183.54 1300.61 L183.54 1331.24 L191.178 1331.24 L191.178 1335.17 L171.271 1335.17 L171.271 1331.24 Z" fill="#000000" fill-rule="nonzero" fill-opacity="1" /><path clip-path="url(#clip370)" d="M174.859 1046.01 L191.178 1046.01 L191.178 1049.94 L169.234 1049.94 L169.234 1046.01 Q171.896 1043.25 176.48 1038.62 Q181.086 1033.97 182.267 1032.63 Q184.512 1030.1 185.391 1028.37 Q186.294 1026.61 186.294 1024.92 Q186.294 1022.16 184.35 1020.43 Q182.429 1018.69 179.327 1018.69 Q177.128 1018.69 174.674 1019.45 Q172.243 1020.22 169.466 1021.77 L169.466 1017.05 Q172.29 1015.91 174.743 1015.33 Q177.197 1014.76 179.234 1014.76 Q184.604 1014.76 187.799 1017.44 Q190.993 1020.13 190.993 1024.62 Q190.993 1026.75 190.183 1028.67 Q189.396 1030.57 187.29 1033.16 Q186.711 1033.83 183.609 1037.05 Q180.507 1040.24 174.859 1046.01 Z" fill="#000000" fill-rule="nonzero" fill-opacity="1" /><path clip-path="url(#clip370)" d="M184.049 746.077 Q187.405 746.794 189.28 749.063 Q191.178 751.331 191.178 754.665 Q191.178 759.78 187.66 762.581 Q184.141 765.382 177.66 765.382 Q175.484 765.382 173.169 764.942 Q170.878 764.526 168.424 763.669 L168.424 759.155 Q170.368 760.29 172.683 760.868 Q174.998 761.447 177.521 761.447 Q181.919 761.447 184.211 759.711 Q186.526 757.975 186.526 754.665 Q186.526 751.609 184.373 749.896 Q182.243 748.16 178.424 748.16 L174.396 748.16 L174.396 744.317 L178.609 744.317 Q182.058 744.317 183.887 742.952 Q185.716 741.563 185.716 738.97 Q185.716 736.308 183.817 734.896 Q181.942 733.461 178.424 733.461 Q176.503 733.461 174.304 733.878 Q172.105 734.294 169.466 735.174 L169.466 731.007 Q172.128 730.267 174.442 729.896 Q176.78 729.526 178.841 729.526 Q184.165 729.526 187.266 731.956 Q190.368 734.364 190.368 738.484 Q190.368 741.354 188.725 743.345 Q187.081 745.313 184.049 746.077 Z" fill="#000000" fill-rule="nonzero" fill-opacity="1" /><path clip-path="url(#clip370)" d="M181.595 448.995 L169.79 467.444 L181.595 467.444 L181.595 448.995 M180.368 444.921 L186.248 444.921 L186.248 467.444 L191.178 467.444 L191.178 471.333 L186.248 471.333 L186.248 479.481 L181.595 479.481 L181.595 471.333 L165.993 471.333 L165.993 466.819 L180.368 444.921 Z" fill="#000000" fill-rule="nonzero" fill-opacity="1" /><path clip-path="url(#clip370)" d="M170.276 159.691 L188.632 159.691 L188.632 163.626 L174.558 163.626 L174.558 172.099 Q175.577 171.751 176.595 171.589 Q177.614 171.404 178.632 171.404 Q184.419 171.404 187.799 174.575 Q191.178 177.747 191.178 183.163 Q191.178 188.742 187.706 191.844 Q184.234 194.922 177.915 194.922 Q175.739 194.922 173.47 194.552 Q171.225 194.182 168.818 193.441 L168.818 188.742 Q170.901 189.876 173.123 190.432 Q175.345 190.987 177.822 190.987 Q181.827 190.987 184.165 188.881 Q186.503 186.774 186.503 183.163 Q186.503 179.552 184.165 177.446 Q181.827 175.339 177.822 175.339 Q175.947 175.339 174.072 175.756 Q172.22 176.173 170.276 177.052 L170.276 159.691 Z" fill="#000000" fill-rule="nonzero" fill-opacity="1" /><path clip-path="url(#clip370)" d="M82.0575 1233.41 Q82.7577 1231.34 85.0494 1229.4 Q87.341 1227.43 91.3514 1225.45 L104.337 1218.93 L104.337 1225.84 L92.1471 1231.92 Q87.3728 1234.27 85.8132 1236.5 Q84.2536 1238.7 84.2536 1242.51 L84.2536 1249.52 L104.337 1249.52 L104.337 1255.95 L56.8174 1255.95 L56.8174 1241.43 Q56.8174 1233.28 60.2231 1229.27 Q63.6288 1225.26 70.5037 1225.26 Q74.9915 1225.26 77.9516 1227.36 Q80.9116 1229.43 82.0575 1233.41 M62.101 1249.52 L78.9701 1249.52 L78.9701 1241.43 Q78.9701 1236.79 76.8376 1234.43 Q74.6733 1232.04 70.5037 1232.04 Q66.3342 1232.04 64.2335 1234.43 Q62.101 1236.79 62.101 1241.43 L62.101 1249.52 Z" fill="#000000" fill-rule="nonzero" fill-opacity="1" /><path clip-path="url(#clip370)" d="M86.418 1196.14 Q86.418 1203.24 88.0412 1205.98 Q89.6645 1208.71 93.5794 1208.71 Q96.6986 1208.71 98.5447 1206.68 Q100.359 1204.61 100.359 1201.07 Q100.359 1196.2 96.9214 1193.28 Q93.4521 1190.32 87.723 1190.32 L86.418 1190.32 L86.418 1196.14 M83.999 1184.46 L104.337 1184.46 L104.337 1190.32 L98.9266 1190.32 Q102.173 1192.32 103.733 1195.31 Q105.26 1198.31 105.26 1202.63 Q105.26 1208.11 102.205 1211.35 Q99.1176 1214.57 93.9613 1214.57 Q87.9458 1214.57 84.8902 1210.56 Q81.8347 1206.52 81.8347 1198.53 L81.8347 1190.32 L81.2618 1190.32 Q77.2195 1190.32 75.0234 1192.99 Q72.7954 1195.63 72.7954 1200.44 Q72.7954 1203.49 73.5274 1206.39 Q74.2595 1209.29 75.7236 1211.96 L70.3127 1211.96 Q69.0714 1208.74 68.4667 1205.72 Q67.8301 1202.7 67.8301 1199.83 Q67.8301 1192.1 71.8405 1188.28 Q75.8509 1184.46 83.999 1184.46 Z" fill="#000000" fill-rule="nonzero" fill-opacity="1" /><path clip-path="url(#clip370)" d="M58.568 1166.6 L68.6895 1166.6 L68.6895 1154.54 L73.241 1154.54 L73.241 1166.6 L92.5927 1166.6 Q96.9532 1166.6 98.1945 1165.43 Q99.4359 1164.22 99.4359 1160.56 L99.4359 1154.54 L104.337 1154.54 L104.337 1160.56 Q104.337 1167.34 101.823 1169.91 Q99.2767 1172.49 92.5927 1172.49 L73.241 1172.49 L73.241 1176.79 L68.6895 1176.79 L68.6895 1172.49 L58.568 1172.49 L58.568 1166.6 Z" fill="#000000" fill-rule="nonzero" fill-opacity="1" /><path clip-path="url(#clip370)" d="M68.6895 1146.84 L68.6895 1140.98 L104.337 1140.98 L104.337 1146.84 L68.6895 1146.84 M54.8123 1146.84 L54.8123 1140.98 L62.2283 1140.98 L62.2283 1146.84 L54.8123 1146.84 Z" fill="#000000" fill-rule="nonzero" fill-opacity="1" /><path clip-path="url(#clip370)" d="M82.8214 1099.1 L104.337 1099.1 L104.337 1104.95 L83.0123 1104.95 Q77.9516 1104.95 75.4371 1106.93 Q72.9227 1108.9 72.9227 1112.85 Q72.9227 1117.59 75.9464 1120.33 Q78.9701 1123.06 84.19 1123.06 L104.337 1123.06 L104.337 1128.95 L68.6895 1128.95 L68.6895 1123.06 L74.2277 1123.06 Q71.013 1120.96 69.4215 1118.13 Q67.8301 1115.26 67.8301 1111.54 Q67.8301 1105.4 71.6495 1102.25 Q75.4371 1099.1 82.8214 1099.1 Z" fill="#000000" fill-rule="nonzero" fill-opacity="1" /><path clip-path="url(#clip370)" d="M86.0997 1063.96 Q79.734 1063.96 76.2329 1066.6 Q72.7317 1069.21 72.7317 1073.95 Q72.7317 1078.66 76.2329 1081.3 Q79.734 1083.91 86.0997 1083.91 Q92.4336 1083.91 95.9347 1081.3 Q99.4359 1078.66 99.4359 1073.95 Q99.4359 1069.21 95.9347 1066.6 Q92.4336 1063.96 86.0997 1063.96 M99.9133 1058.1 Q109.016 1058.1 113.44 1062.14 Q117.896 1066.18 117.896 1074.52 Q117.896 1077.61 117.419 1080.35 Q116.973 1083.09 116.019 1085.66 L110.321 1085.66 Q111.722 1083.09 112.39 1080.57 Q113.058 1078.06 113.058 1075.45 Q113.058 1069.69 110.035 1066.82 Q107.043 1063.96 100.964 1063.96 L98.0672 1063.96 Q101.218 1065.77 102.778 1068.6 Q104.337 1071.44 104.337 1075.38 Q104.337 1081.94 99.3404 1085.95 Q94.3433 1089.96 86.0997 1089.96 Q77.8243 1089.96 72.8272 1085.95 Q67.8301 1081.94 67.8301 1075.38 Q67.8301 1071.44 69.3897 1068.6 Q70.9493 1065.77 74.1003 1063.96 L68.6895 1063.96 L68.6895 1058.1 L99.9133 1058.1 Z" fill="#000000" fill-rule="nonzero" fill-opacity="1" /><path clip-path="url(#clip370)" d="M54.8759 1011.25 Q62.1965 1015.51 69.3579 1017.58 Q76.5193 1019.65 83.8717 1019.65 Q91.2241 1019.65 98.4492 1017.58 Q105.642 1015.48 112.931 1011.25 L112.931 1016.34 Q105.451 1021.12 98.2264 1023.5 Q91.0013 1025.86 83.8717 1025.86 Q76.7739 1025.86 69.5807 1023.5 Q62.3874 1021.15 54.8759 1016.34 L54.8759 1011.25 Z" fill="#000000" fill-rule="nonzero" fill-opacity="1" /><path clip-path="url(#clip370)" d="M69.7398 977.16 L75.278 977.16 Q74.0049 979.643 73.3683 982.317 Q72.7317 984.99 72.7317 987.855 Q72.7317 992.215 74.0685 994.412 Q75.4053 996.576 78.0789 996.576 Q80.1159 996.576 81.2936 995.016 Q82.4394 993.457 83.4898 988.746 L83.9354 986.741 Q85.2722 980.502 87.723 977.893 Q90.1419 975.251 94.5024 975.251 Q99.4677 975.251 102.364 979.197 Q105.26 983.112 105.26 989.987 Q105.26 992.852 104.688 995.971 Q104.146 999.058 103.032 1002.5 L96.9851 1002.5 Q98.672 999.249 99.5313 996.098 Q100.359 992.947 100.359 989.86 Q100.359 985.722 98.9584 983.494 Q97.5261 981.266 94.948 981.266 Q92.5609 981.266 91.2877 982.89 Q90.0146 984.481 88.837 989.924 L88.3595 991.961 Q87.2137 997.403 84.8584 999.822 Q82.4712 1002.24 78.3335 1002.24 Q73.3046 1002.24 70.5674 998.677 Q67.8301 995.112 67.8301 988.555 Q67.8301 985.309 68.3075 982.444 Q68.785 979.579 69.7398 977.16 Z" fill="#000000" fill-rule="nonzero" fill-opacity="1" /><path clip-path="url(#clip370)" d="M70.0581 940.271 L75.5326 940.271 Q74.164 942.754 73.4956 945.268 Q72.7954 947.751 72.7954 950.297 Q72.7954 955.994 76.4238 959.146 Q80.0204 962.297 86.5453 962.297 Q93.0701 962.297 96.6986 959.146 Q100.295 955.994 100.295 950.297 Q100.295 947.751 99.6268 945.268 Q98.9266 942.754 97.558 940.271 L102.969 940.271 Q104.115 942.722 104.688 945.364 Q105.26 947.974 105.26 950.934 Q105.26 958.986 100.2 963.729 Q95.139 968.471 86.5453 968.471 Q77.8243 968.471 72.8272 963.697 Q67.8301 958.891 67.8301 950.552 Q67.8301 947.846 68.403 945.268 Q68.9441 942.69 70.0581 940.271 Z" fill="#000000" fill-rule="nonzero" fill-opacity="1" /><path clip-path="url(#clip370)" d="M86.418 913.885 Q86.418 920.983 88.0412 923.72 Q89.6645 926.458 93.5794 926.458 Q96.6986 926.458 98.5447 924.421 Q100.359 922.352 100.359 918.819 Q100.359 913.949 96.9214 911.021 Q93.4521 908.061 87.723 908.061 L86.418 908.061 L86.418 913.885 M83.999 902.204 L104.337 902.204 L104.337 908.061 L98.9266 908.061 Q102.173 910.066 103.733 913.058 Q105.26 916.05 105.26 920.378 Q105.26 925.853 102.205 929.099 Q99.1176 932.314 93.9613 932.314 Q87.9458 932.314 84.8902 928.304 Q81.8347 924.261 81.8347 916.272 L81.8347 908.061 L81.2618 908.061 Q77.2195 908.061 75.0234 910.734 Q72.7954 913.376 72.7954 918.182 Q72.7954 921.238 73.5274 924.134 Q74.2595 927.031 75.7236 929.704 L70.3127 929.704 Q69.0714 926.489 68.4667 923.466 Q67.8301 920.442 67.8301 917.577 Q67.8301 909.843 71.8405 906.024 Q75.8509 902.204 83.999 902.204 Z" fill="#000000" fill-rule="nonzero" fill-opacity="1" /><path clip-path="url(#clip370)" d="M54.8123 890.141 L54.8123 884.285 L104.337 884.285 L104.337 890.141 L54.8123 890.141 Z" fill="#000000" fill-rule="nonzero" fill-opacity="1" /><path clip-path="url(#clip370)" d="M85.0494 841.539 L87.9139 841.539 L87.9139 868.466 Q93.9613 868.084 97.1442 864.838 Q100.295 861.559 100.295 855.735 Q100.295 852.361 99.4677 849.21 Q98.6401 846.027 96.9851 842.908 L102.523 842.908 Q103.86 846.059 104.56 849.369 Q105.26 852.679 105.26 856.085 Q105.26 864.615 100.295 869.612 Q95.33 874.577 86.8636 874.577 Q78.1107 874.577 72.9863 869.866 Q67.8301 865.124 67.8301 857.103 Q67.8301 849.91 72.4771 845.74 Q77.0922 841.539 85.0494 841.539 M83.3306 847.396 Q78.5245 847.459 75.6599 850.101 Q72.7954 852.711 72.7954 857.04 Q72.7954 861.941 75.5645 864.901 Q78.3335 867.829 83.3624 868.275 L83.3306 847.396 Z" fill="#000000" fill-rule="nonzero" fill-opacity="1" /><path clip-path="url(#clip370)" d="M72.7954 797.393 Q72.7954 802.104 76.4875 804.841 Q80.1478 807.578 86.5453 807.578 Q92.9428 807.578 96.6349 804.873 Q100.295 802.135 100.295 797.393 Q100.295 792.714 96.6031 789.977 Q92.911 787.24 86.5453 787.24 Q80.2114 787.24 76.5193 789.977 Q72.7954 792.714 72.7954 797.393 M67.8301 797.393 Q67.8301 789.754 72.7954 785.394 Q77.7606 781.033 86.5453 781.033 Q95.2981 781.033 100.295 785.394 Q105.26 789.754 105.26 797.393 Q105.26 805.064 100.295 809.424 Q95.2981 813.753 86.5453 813.753 Q77.7606 813.753 72.7954 809.424 Q67.8301 805.064 67.8301 797.393 Z" fill="#000000" fill-rule="nonzero" fill-opacity="1" /><path clip-path="url(#clip370)" d="M54.8123 753.279 L59.682 753.279 L59.682 758.88 Q59.682 762.031 60.9552 763.273 Q62.2283 764.482 65.5385 764.482 L68.6895 764.482 L68.6895 754.838 L73.241 754.838 L73.241 764.482 L104.337 764.482 L104.337 770.37 L73.241 770.37 L73.241 775.972 L68.6895 775.972 L68.6895 770.37 L66.2069 770.37 Q60.2549 770.37 57.5495 767.601 Q54.8123 764.832 54.8123 758.817 L54.8123 753.279 Z" fill="#000000" fill-rule="nonzero" fill-opacity="1" /><path clip-path="url(#clip370)" d="M98.9266 725.715 L98.9266 715.212 L62.6739 715.212 L64.9656 726.638 L59.1091 726.638 L56.8174 715.275 L56.8174 708.846 L98.9266 708.846 L98.9266 698.343 L104.337 698.343 L104.337 725.715 L98.9266 725.715 Z" fill="#000000" fill-rule="nonzero" fill-opacity="1" /><path clip-path="url(#clip370)" d="M58.568 659.671 L68.6895 659.671 L68.6895 647.608 L73.241 647.608 L73.241 659.671 L92.5927 659.671 Q96.9532 659.671 98.1945 658.493 Q99.4359 657.284 99.4359 653.623 L99.4359 647.608 L104.337 647.608 L104.337 653.623 Q104.337 660.403 101.823 662.981 Q99.2767 665.559 92.5927 665.559 L73.241 665.559 L73.241 669.856 L68.6895 669.856 L68.6895 665.559 L58.568 665.559 L58.568 659.671 Z" fill="#000000" fill-rule="nonzero" fill-opacity="1" /><path clip-path="url(#clip370)" d="M72.7954 626.092 Q72.7954 630.802 76.4875 633.54 Q80.1478 636.277 86.5453 636.277 Q92.9428 636.277 96.6349 633.571 Q100.295 630.834 100.295 626.092 Q100.295 621.413 96.6031 618.676 Q92.911 615.938 86.5453 615.938 Q80.2114 615.938 76.5193 618.676 Q72.7954 621.413 72.7954 626.092 M67.8301 626.092 Q67.8301 618.453 72.7954 614.092 Q77.7606 609.732 86.5453 609.732 Q95.2981 609.732 100.295 614.092 Q105.26 618.453 105.26 626.092 Q105.26 633.762 100.295 638.123 Q95.2981 642.452 86.5453 642.452 Q77.7606 642.452 72.7954 638.123 Q67.8301 633.762 67.8301 626.092 Z" fill="#000000" fill-rule="nonzero" fill-opacity="1" /><path clip-path="url(#clip370)" d="M56.8174 578.413 L56.8174 553.173 L62.2283 553.173 L62.2283 572.524 L73.8775 572.524 Q73.4001 571.124 73.1773 569.723 Q72.9227 568.323 72.9227 566.923 Q72.9227 558.965 77.2832 554.318 Q81.6437 549.671 89.0916 549.671 Q96.7623 549.671 101.027 554.446 Q105.26 559.22 105.26 567.909 Q105.26 570.901 104.751 574.02 Q104.242 577.108 103.223 580.418 L96.7623 580.418 Q98.3219 577.553 99.0857 574.498 Q99.8496 571.442 99.8496 568.037 Q99.8496 562.53 96.9532 559.315 Q94.0568 556.101 89.0916 556.101 Q84.1263 556.101 81.2299 559.315 Q78.3335 562.53 78.3335 568.037 Q78.3335 570.615 78.9065 573.193 Q79.4794 575.739 80.6888 578.413 L56.8174 578.413 Z" fill="#000000" fill-rule="nonzero" fill-opacity="1" /><path clip-path="url(#clip370)" d="M54.8759 538.754 L54.8759 533.662 Q62.3874 528.887 69.5807 526.532 Q76.7739 524.145 83.8717 524.145 Q91.0013 524.145 98.2264 526.532 Q105.451 528.887 112.931 533.662 L112.931 538.754 Q105.642 534.521 98.4492 532.452 Q91.2241 530.352 83.8717 530.352 Q76.5193 530.352 69.3579 532.452 Q62.1965 534.521 54.8759 538.754 Z" fill="#000000" fill-rule="nonzero" fill-opacity="1" /><path clip-path="url(#clip370)" d="M774.077 12.096 L782.341 12.096 L795.061 63.2184 L807.74 12.096 L816.936 12.096 L829.656 63.2184 L842.335 12.096 L850.64 12.096 L835.449 72.576 L825.159 72.576 L812.399 20.0763 L799.517 72.576 L789.228 72.576 L774.077 12.096 Z" fill="#000000" fill-rule="nonzero" fill-opacity="1" /><path clip-path="url(#clip370)" d="M873.892 32.4315 Q867.896 32.4315 864.413 37.1306 Q860.929 41.7891 860.929 49.9314 Q860.929 58.0738 864.372 62.7728 Q867.856 67.4314 873.892 67.4314 Q879.847 67.4314 883.33 62.7323 Q886.814 58.0333 886.814 49.9314 Q886.814 41.8701 883.33 37.1711 Q879.847 32.4315 873.892 32.4315 M873.892 26.1121 Q883.614 26.1121 889.164 32.4315 Q894.713 38.7509 894.713 49.9314 Q894.713 61.0714 889.164 67.4314 Q883.614 73.7508 873.892 73.7508 Q864.129 73.7508 858.579 67.4314 Q853.07 61.0714 853.07 49.9314 Q853.07 38.7509 858.579 32.4315 Q864.129 26.1121 873.892 26.1121 Z" fill="#000000" fill-rule="nonzero" fill-opacity="1" /><path clip-path="url(#clip370)" d="M906.299 54.671 L906.299 27.2059 L913.753 27.2059 L913.753 54.3874 Q913.753 60.8284 916.264 64.0691 Q918.776 67.2693 923.799 67.2693 Q929.835 67.2693 933.318 63.421 Q936.843 59.5726 936.843 52.9291 L936.843 27.2059 L944.296 27.2059 L944.296 72.576 L936.843 72.576 L936.843 65.6084 Q934.129 69.7404 930.523 71.7658 Q926.959 73.7508 922.219 73.7508 Q914.401 73.7508 910.35 68.8897 Q906.299 64.0286 906.299 54.671 M925.055 26.1121 L925.055 26.1121 Z" fill="#000000" fill-rule="nonzero" fill-opacity="1" /><path clip-path="url(#clip370)" d="M959.649 9.54393 L967.103 9.54393 L967.103 72.576 L959.649 72.576 L959.649 9.54393 Z" fill="#000000" fill-rule="nonzero" fill-opacity="1" /><path clip-path="url(#clip370)" d="M1012.55 34.0924 L1012.55 9.54393 L1020.01 9.54393 L1020.01 72.576 L1012.55 72.576 L1012.55 65.7705 Q1010.2 69.8214 1006.6 71.8063 Q1003.03 73.7508 998.011 73.7508 Q989.788 73.7508 984.603 67.1883 Q979.458 60.6258 979.458 49.9314 Q979.458 39.2371 984.603 32.6746 Q989.788 26.1121 998.011 26.1121 Q1003.03 26.1121 1006.6 28.0971 Q1010.2 30.0415 1012.55 34.0924 M987.155 49.9314 Q987.155 58.1548 990.517 62.8538 Q993.92 67.5124 999.834 67.5124 Q1005.75 67.5124 1009.15 62.8538 Q1012.55 58.1548 1012.55 49.9314 Q1012.55 41.7081 1009.15 37.0496 Q1005.75 32.3505 999.834 32.3505 Q993.92 32.3505 990.517 37.0496 Q987.155 41.7081 987.155 49.9314 Z" fill="#000000" fill-rule="nonzero" fill-opacity="1" /><path clip-path="url(#clip370)" d="M1062.06 12.096 L1070.24 12.096 L1070.24 68.3631 Q1070.24 79.3005 1066.07 84.2426 Q1061.93 89.1847 1052.74 89.1847 L1049.62 89.1847 L1049.62 82.2982 L1052.17 82.2982 Q1057.6 82.2982 1059.83 79.26 Q1062.06 76.2218 1062.06 68.3631 L1062.06 12.096 Z" fill="#000000" fill-rule="nonzero" fill-opacity="1" /><path clip-path="url(#clip370)" d="M1125.01 48.0275 L1125.01 51.6733 L1090.74 51.6733 Q1091.22 59.3701 1095.35 63.421 Q1099.53 67.4314 1106.94 67.4314 Q1111.23 67.4314 1115.24 66.3781 Q1119.3 65.3249 1123.27 63.2184 L1123.27 70.267 Q1119.25 71.9684 1115.04 72.8596 Q1110.83 73.7508 1106.49 73.7508 Q1095.64 73.7508 1089.28 67.4314 Q1082.96 61.1119 1082.96 50.3365 Q1082.96 39.1965 1088.95 32.6746 Q1094.99 26.1121 1105.2 26.1121 Q1114.35 26.1121 1119.66 32.0264 Q1125.01 37.9003 1125.01 48.0275 M1117.55 45.84 Q1117.47 39.7232 1114.11 36.0774 Q1110.79 32.4315 1105.28 32.4315 Q1099.04 32.4315 1095.27 35.9558 Q1091.55 39.4801 1090.98 45.8805 L1117.55 45.84 Z" fill="#000000" fill-rule="nonzero" fill-opacity="1" /><path clip-path="url(#clip370)" d="M1174.95 45.1919 L1174.95 72.576 L1167.5 72.576 L1167.5 45.4349 Q1167.5 38.994 1164.99 35.7938 Q1162.48 32.5936 1157.45 32.5936 Q1151.42 32.5936 1147.94 36.4419 Q1144.45 40.2903 1144.45 46.9338 L1144.45 72.576 L1136.96 72.576 L1136.96 27.2059 L1144.45 27.2059 L1144.45 34.2544 Q1147.13 30.163 1150.73 28.1376 Q1154.38 26.1121 1159.12 26.1121 Q1166.93 26.1121 1170.94 30.9732 Q1174.95 35.7938 1174.95 45.1919 Z" fill="#000000" fill-rule="nonzero" fill-opacity="1" /><path clip-path="url(#clip370)" d="M1227.54 45.1919 L1227.54 72.576 L1220.08 72.576 L1220.08 45.4349 Q1220.08 38.994 1217.57 35.7938 Q1215.06 32.5936 1210.04 32.5936 Q1204 32.5936 1200.52 36.4419 Q1197.03 40.2903 1197.03 46.9338 L1197.03 72.576 L1189.54 72.576 L1189.54 27.2059 L1197.03 27.2059 L1197.03 34.2544 Q1199.71 30.163 1203.31 28.1376 Q1206.96 26.1121 1211.7 26.1121 Q1219.51 26.1121 1223.53 30.9732 Q1227.54 35.7938 1227.54 45.1919 Z" fill="#000000" fill-rule="nonzero" fill-opacity="1" /><path clip-path="url(#clip370)" d="M1242.4 27.2059 L1249.86 27.2059 L1249.86 72.576 L1242.4 72.576 L1242.4 27.2059 M1242.4 9.54393 L1249.86 9.54393 L1249.86 18.9825 L1242.4 18.9825 L1242.4 9.54393 Z" fill="#000000" fill-rule="nonzero" fill-opacity="1" /><path clip-path="url(#clip370)" d="M1288.42 9.54393 L1288.42 15.7418 L1281.29 15.7418 Q1277.28 15.7418 1275.7 17.3622 Q1274.16 18.9825 1274.16 23.1955 L1274.16 27.2059 L1286.44 27.2059 L1286.44 32.9987 L1274.16 32.9987 L1274.16 72.576 L1266.67 72.576 L1266.67 32.9987 L1259.54 32.9987 L1259.54 27.2059 L1266.67 27.2059 L1266.67 24.0462 Q1266.67 16.471 1270.19 13.0277 Q1273.72 9.54393 1281.37 9.54393 L1288.42 9.54393 Z" fill="#000000" fill-rule="nonzero" fill-opacity="1" /><path clip-path="url(#clip370)" d="M1333.47 48.0275 L1333.47 51.6733 L1299.2 51.6733 Q1299.68 59.3701 1303.81 63.421 Q1307.99 67.4314 1315.4 67.4314 Q1319.69 67.4314 1323.7 66.3781 Q1327.76 65.3249 1331.72 63.2184 L1331.72 70.267 Q1327.71 71.9684 1323.5 72.8596 Q1319.29 73.7508 1314.95 73.7508 Q1304.1 73.7508 1297.74 67.4314 Q1291.42 61.1119 1291.42 50.3365 Q1291.42 39.1965 1297.41 32.6746 Q1303.45 26.1121 1313.66 26.1121 Q1322.81 26.1121 1328.12 32.0264 Q1333.47 37.9003 1333.47 48.0275 M1326.01 45.84 Q1325.93 39.7232 1322.57 36.0774 Q1319.25 32.4315 1313.74 32.4315 Q1307.5 32.4315 1303.73 35.9558 Q1300.01 39.4801 1299.44 45.8805 L1326.01 45.84 Z" fill="#000000" fill-rule="nonzero" fill-opacity="1" /><path clip-path="url(#clip370)" d="M1371.99 34.1734 Q1370.74 33.4443 1369.24 33.1202 Q1367.78 32.7556 1366 32.7556 Q1359.68 32.7556 1356.27 36.8875 Q1352.91 40.9789 1352.91 48.6757 L1352.91 72.576 L1345.42 72.576 L1345.42 27.2059 L1352.91 27.2059 L1352.91 34.2544 Q1355.26 30.1225 1359.03 28.1376 Q1362.8 26.1121 1368.18 26.1121 Q1368.95 26.1121 1369.88 26.2337 Q1370.82 26.3147 1371.95 26.5172 L1371.99 34.1734 Z" fill="#000000" fill-rule="nonzero" fill-opacity="1" /><path clip-path="url(#clip370)" d="M1423.76 32.4315 Q1417.77 32.4315 1414.28 37.1306 Q1410.8 41.7891 1410.8 49.9314 Q1410.8 58.0738 1414.24 62.7728 Q1417.73 67.4314 1423.76 67.4314 Q1429.72 67.4314 1433.2 62.7323 Q1436.68 58.0333 1436.68 49.9314 Q1436.68 41.8701 1433.2 37.1711 Q1429.72 32.4315 1423.76 32.4315 M1423.76 26.1121 Q1433.48 26.1121 1439.03 32.4315 Q1444.58 38.7509 1444.58 49.9314 Q1444.58 61.0714 1439.03 67.4314 Q1433.48 73.7508 1423.76 73.7508 Q1414 73.7508 1408.45 67.4314 Q1402.94 61.0714 1402.94 49.9314 Q1402.94 38.7509 1408.45 32.4315 Q1414 26.1121 1423.76 26.1121 Z" fill="#000000" fill-rule="nonzero" fill-opacity="1" /><path clip-path="url(#clip370)" d="M1483.23 34.1734 Q1481.97 33.4443 1480.47 33.1202 Q1479.02 32.7556 1477.23 32.7556 Q1470.91 32.7556 1467.51 36.8875 Q1464.15 40.9789 1464.15 48.6757 L1464.15 72.576 L1456.65 72.576 L1456.65 27.2059 L1464.15 27.2059 L1464.15 34.2544 Q1466.5 30.1225 1470.27 28.1376 Q1474.03 26.1121 1479.42 26.1121 Q1480.19 26.1121 1481.12 26.2337 Q1482.05 26.3147 1483.19 26.5172 L1483.23 34.1734 Z" fill="#000000" fill-rule="nonzero" fill-opacity="1" /><path clip-path="url(#clip370)" d="M1517.74 12.096 L1525.93 12.096 L1525.93 68.3631 Q1525.93 79.3005 1521.75 84.2426 Q1517.62 89.1847 1508.43 89.1847 L1505.31 89.1847 L1505.31 82.2982 L1507.86 82.2982 Q1513.29 82.2982 1515.51 79.26 Q1517.74 76.2218 1517.74 68.3631 L1517.74 12.096 Z" fill="#000000" fill-rule="nonzero" fill-opacity="1" /><path clip-path="url(#clip370)" d="M1559.47 32.4315 Q1553.47 32.4315 1549.99 37.1306 Q1546.5 41.7891 1546.5 49.9314 Q1546.5 58.0738 1549.95 62.7728 Q1553.43 67.4314 1559.47 67.4314 Q1565.42 67.4314 1568.91 62.7323 Q1572.39 58.0333 1572.39 49.9314 Q1572.39 41.8701 1568.91 37.1711 Q1565.42 32.4315 1559.47 32.4315 M1559.47 26.1121 Q1569.19 26.1121 1574.74 32.4315 Q1580.29 38.7509 1580.29 49.9314 Q1580.29 61.0714 1574.74 67.4314 Q1569.19 73.7508 1559.47 73.7508 Q1549.7 73.7508 1544.15 67.4314 Q1538.65 61.0714 1538.65 49.9314 Q1538.65 38.7509 1544.15 32.4315 Q1549.7 26.1121 1559.47 26.1121 Z" fill="#000000" fill-rule="nonzero" fill-opacity="1" /><path clip-path="url(#clip370)" d="M1630.36 45.1919 L1630.36 72.576 L1622.9 72.576 L1622.9 45.4349 Q1622.9 38.994 1620.39 35.7938 Q1617.88 32.5936 1612.86 32.5936 Q1606.82 32.5936 1603.34 36.4419 Q1599.85 40.2903 1599.85 46.9338 L1599.85 72.576 L1592.36 72.576 L1592.36 9.54393 L1599.85 9.54393 L1599.85 34.2544 Q1602.53 30.163 1606.13 28.1376 Q1609.78 26.1121 1614.52 26.1121 Q1622.34 26.1121 1626.35 30.9732 Q1630.36 35.7938 1630.36 45.1919 Z" fill="#000000" fill-rule="nonzero" fill-opacity="1" /><path clip-path="url(#clip370)" d="M1682.94 45.1919 L1682.94 72.576 L1675.48 72.576 L1675.48 45.4349 Q1675.48 38.994 1672.97 35.7938 Q1670.46 32.5936 1665.44 32.5936 Q1659.4 32.5936 1655.92 36.4419 Q1652.43 40.2903 1652.43 46.9338 L1652.43 72.576 L1644.94 72.576 L1644.94 27.2059 L1652.43 27.2059 L1652.43 34.2544 Q1655.11 30.163 1658.71 28.1376 Q1662.36 26.1121 1667.1 26.1121 Q1674.92 26.1121 1678.93 30.9732 Q1682.94 35.7938 1682.94 45.1919 Z" fill="#000000" fill-rule="nonzero" fill-opacity="1" /><path clip-path="url(#clip370)" d="M1750.47 34.1734 Q1749.21 33.4443 1747.71 33.1202 Q1746.25 32.7556 1744.47 32.7556 Q1738.15 32.7556 1734.75 36.8875 Q1731.39 40.9789 1731.39 48.6757 L1731.39 72.576 L1723.89 72.576 L1723.89 27.2059 L1731.39 27.2059 L1731.39 34.2544 Q1733.74 30.1225 1737.5 28.1376 Q1741.27 26.1121 1746.66 26.1121 Q1747.43 26.1121 1748.36 26.2337 Q1749.29 26.3147 1750.43 26.5172 L1750.47 34.1734 Z" fill="#000000" fill-rule="nonzero" fill-opacity="1" /><path clip-path="url(#clip370)" d="M1795.27 48.0275 L1795.27 51.6733 L1761 51.6733 Q1761.49 59.3701 1765.62 63.421 Q1769.79 67.4314 1777.2 67.4314 Q1781.5 67.4314 1785.51 66.3781 Q1789.56 65.3249 1793.53 63.2184 L1793.53 70.267 Q1789.52 71.9684 1785.3 72.8596 Q1781.09 73.7508 1776.76 73.7508 Q1765.9 73.7508 1759.54 67.4314 Q1753.22 61.1119 1753.22 50.3365 Q1753.22 39.1965 1759.22 32.6746 Q1765.25 26.1121 1775.46 26.1121 Q1784.62 26.1121 1789.92 32.0264 Q1795.27 37.9003 1795.27 48.0275 M1787.82 45.84 Q1787.74 39.7232 1784.37 36.0774 Q1781.05 32.4315 1775.54 32.4315 Q1769.3 32.4315 1765.54 35.9558 Q1761.81 39.4801 1761.24 45.8805 L1787.82 45.84 Z" fill="#000000" fill-rule="nonzero" fill-opacity="1" /><path clip-path="url(#clip370)" d="M1840.15 28.9478 L1840.15 35.9153 Q1836.99 34.1734 1833.79 33.3227 Q1830.63 32.4315 1827.39 32.4315 Q1820.14 32.4315 1816.13 37.0496 Q1812.12 41.6271 1812.12 49.9314 Q1812.12 58.2358 1816.13 62.8538 Q1820.14 67.4314 1827.39 67.4314 Q1830.63 67.4314 1833.79 66.5807 Q1836.99 65.6895 1840.15 63.9476 L1840.15 70.8341 Q1837.03 72.2924 1833.67 73.0216 Q1830.35 73.7508 1826.58 73.7508 Q1816.33 73.7508 1810.3 67.3098 Q1804.26 60.8689 1804.26 49.9314 Q1804.26 38.832 1810.34 32.472 Q1816.46 26.1121 1827.07 26.1121 Q1830.51 26.1121 1833.79 26.8413 Q1837.08 27.5299 1840.15 28.9478 Z" fill="#000000" fill-rule="nonzero" fill-opacity="1" /><path clip-path="url(#clip370)" d="M1891.92 48.0275 L1891.92 51.6733 L1857.65 51.6733 Q1858.14 59.3701 1862.27 63.421 Q1866.44 67.4314 1873.86 67.4314 Q1878.15 67.4314 1882.16 66.3781 Q1886.21 65.3249 1890.18 63.2184 L1890.18 70.267 Q1886.17 71.9684 1881.96 72.8596 Q1877.75 73.7508 1873.41 73.7508 Q1862.56 73.7508 1856.2 67.4314 Q1849.88 61.1119 1849.88 50.3365 Q1849.88 39.1965 1855.87 32.6746 Q1861.91 26.1121 1872.12 26.1121 Q1881.27 26.1121 1886.58 32.0264 Q1891.92 37.9003 1891.92 48.0275 M1884.47 45.84 Q1884.39 39.7232 1881.03 36.0774 Q1877.71 32.4315 1872.2 32.4315 Q1865.96 32.4315 1862.19 35.9558 Q1858.46 39.4801 1857.9 45.8805 L1884.47 45.84 Z" fill="#000000" fill-rule="nonzero" fill-opacity="1" /><path clip-path="url(#clip370)" d="M1904.16 27.2059 L1911.61 27.2059 L1911.61 72.576 L1904.16 72.576 L1904.16 27.2059 M1904.16 9.54393 L1911.61 9.54393 L1911.61 18.9825 L1904.16 18.9825 L1904.16 9.54393 Z" fill="#000000" fill-rule="nonzero" fill-opacity="1" /><path clip-path="url(#clip370)" d="M1921.86 27.2059 L1929.76 27.2059 L1943.94 65.2844 L1958.12 27.2059 L1966.02 27.2059 L1949 72.576 L1938.87 72.576 L1921.86 27.2059 Z" fill="#000000" fill-rule="nonzero" fill-opacity="1" /><path clip-path="url(#clip370)" d="M2015.11 48.0275 L2015.11 51.6733 L1980.84 51.6733 Q1981.33 59.3701 1985.46 63.421 Q1989.63 67.4314 1997.05 67.4314 Q2001.34 67.4314 2005.35 66.3781 Q2009.4 65.3249 2013.37 63.2184 L2013.37 70.267 Q2009.36 71.9684 2005.15 72.8596 Q2000.93 73.7508 1996.6 73.7508 Q1985.74 73.7508 1979.38 67.4314 Q1973.06 61.1119 1973.06 50.3365 Q1973.06 39.1965 1979.06 32.6746 Q1985.1 26.1121 1995.3 26.1121 Q2004.46 26.1121 2009.77 32.0264 Q2015.11 37.9003 2015.11 48.0275 M2007.66 45.84 Q2007.58 39.7232 2004.22 36.0774 Q2000.89 32.4315 1995.38 32.4315 Q1989.15 32.4315 1985.38 35.9558 Q1981.65 39.4801 1981.08 45.8805 L2007.66 45.84 Z" fill="#000000" fill-rule="nonzero" fill-opacity="1" /><path clip-path="url(#clip370)" d="M2089.04 35.9153 Q2091.84 30.8922 2095.73 28.5022 Q2099.61 26.1121 2104.88 26.1121 Q2111.97 26.1121 2115.82 31.0947 Q2119.67 36.0368 2119.67 45.1919 L2119.67 72.576 L2112.17 72.576 L2112.17 45.4349 Q2112.17 38.913 2109.86 35.7533 Q2107.55 32.5936 2102.81 32.5936 Q2097.02 32.5936 2093.66 36.4419 Q2090.3 40.2903 2090.3 46.9338 L2090.3 72.576 L2082.8 72.576 L2082.8 45.4349 Q2082.8 38.8725 2080.49 35.7533 Q2078.19 32.5936 2073.36 32.5936 Q2067.65 32.5936 2064.29 36.4824 Q2060.93 40.3308 2060.93 46.9338 L2060.93 72.576 L2053.43 72.576 L2053.43 27.2059 L2060.93 27.2059 L2060.93 34.2544 Q2063.48 30.082 2067.05 28.0971 Q2070.61 26.1121 2075.51 26.1121 Q2080.45 26.1121 2083.9 28.6237 Q2087.38 31.1352 2089.04 35.9153 Z" fill="#000000" fill-rule="nonzero" fill-opacity="1" /><path clip-path="url(#clip370)" d="M2173.34 48.0275 L2173.34 51.6733 L2139.07 51.6733 Q2139.56 59.3701 2143.69 63.421 Q2147.86 67.4314 2155.27 67.4314 Q2159.57 67.4314 2163.58 66.3781 Q2167.63 65.3249 2171.6 63.2184 L2171.6 70.267 Q2167.59 71.9684 2163.38 72.8596 Q2159.16 73.7508 2154.83 73.7508 Q2143.97 73.7508 2137.61 67.4314 Q2131.29 61.1119 2131.29 50.3365 Q2131.29 39.1965 2137.29 32.6746 Q2143.32 26.1121 2153.53 26.1121 Q2162.69 26.1121 2167.99 32.0264 Q2173.34 37.9003 2173.34 48.0275 M2165.89 45.84 Q2165.81 39.7232 2162.44 36.0774 Q2159.12 32.4315 2153.61 32.4315 Q2147.37 32.4315 2143.61 35.9558 Q2139.88 39.4801 2139.31 45.8805 L2165.89 45.84 Z" fill="#000000" fill-rule="nonzero" fill-opacity="1" /><path clip-path="url(#clip370)" d="M2223.29 45.1919 L2223.29 72.576 L2215.83 72.576 L2215.83 45.4349 Q2215.83 38.994 2213.32 35.7938 Q2210.81 32.5936 2205.79 32.5936 Q2199.75 32.5936 2196.27 36.4419 Q2192.79 40.2903 2192.79 46.9338 L2192.79 72.576 L2185.29 72.576 L2185.29 27.2059 L2192.79 27.2059 L2192.79 34.2544 Q2195.46 30.163 2199.06 28.1376 Q2202.71 26.1121 2207.45 26.1121 Q2215.27 26.1121 2219.28 30.9732 Q2223.29 35.7938 2223.29 45.1919 Z" fill="#000000" fill-rule="nonzero" fill-opacity="1" /><path clip-path="url(#clip370)" d="M2245.53 14.324 L2245.53 27.2059 L2260.88 27.2059 L2260.88 32.9987 L2245.53 32.9987 L2245.53 57.6282 Q2245.53 63.1779 2247.03 64.7578 Q2248.57 66.3376 2253.22 66.3376 L2260.88 66.3376 L2260.88 72.576 L2253.22 72.576 Q2244.6 72.576 2241.31 69.3758 Q2238.03 66.1351 2238.03 57.6282 L2238.03 32.9987 L2232.56 32.9987 L2232.56 27.2059 L2238.03 27.2059 L2238.03 14.324 L2245.53 14.324 Z" fill="#000000" fill-rule="nonzero" fill-opacity="1" /><path clip-path="url(#clip370)" d="M2288.26 32.4315 Q2282.27 32.4315 2278.79 37.1306 Q2275.3 41.7891 2275.3 49.9314 Q2275.3 58.0738 2278.75 62.7728 Q2282.23 67.4314 2288.26 67.4314 Q2294.22 67.4314 2297.7 62.7323 Q2301.19 58.0333 2301.19 49.9314 Q2301.19 41.8701 2297.7 37.1711 Q2294.22 32.4315 2288.26 32.4315 M2288.26 26.1121 Q2297.99 26.1121 2303.54 32.4315 Q2309.09 38.7509 2309.09 49.9314 Q2309.09 61.0714 2303.54 67.4314 Q2297.99 73.7508 2288.26 73.7508 Q2278.5 73.7508 2272.95 67.4314 Q2267.44 61.0714 2267.44 49.9314 Q2267.44 38.7509 2272.95 32.4315 Q2278.5 26.1121 2288.26 26.1121 Z" fill="#000000" fill-rule="nonzero" fill-opacity="1" /><path clip-path="url(#clip370)" d="M2347.73 34.1734 Q2346.48 33.4443 2344.98 33.1202 Q2343.52 32.7556 2341.74 32.7556 Q2335.42 32.7556 2332.01 36.8875 Q2328.65 40.9789 2328.65 48.6757 L2328.65 72.576 L2321.16 72.576 L2321.16 27.2059 L2328.65 27.2059 L2328.65 34.2544 Q2331 30.1225 2334.77 28.1376 Q2338.54 26.1121 2343.92 26.1121 Q2344.69 26.1121 2345.63 26.2337 Q2346.56 26.3147 2347.69 26.5172 L2347.73 34.1734 Z" fill="#000000" fill-rule="nonzero" fill-opacity="1" /><path clip-path="url(#clip370)" d="M2355.55 27.2059 L2363 27.2059 L2363 72.576 L2355.55 72.576 L2355.55 27.2059 M2355.55 9.54393 L2363 9.54393 L2363 18.9825 L2355.55 18.9825 L2355.55 9.54393 Z" fill="#000000" fill-rule="nonzero" fill-opacity="1" /><path clip-path="url(#clip370)" d="M2416.31 45.1919 L2416.31 72.576 L2408.86 72.576 L2408.86 45.4349 Q2408.86 38.994 2406.35 35.7938 Q2403.84 32.5936 2398.81 32.5936 Q2392.78 32.5936 2389.29 36.4419 Q2385.81 40.2903 2385.81 46.9338 L2385.81 72.576 L2378.32 72.576 L2378.32 27.2059 L2385.81 27.2059 L2385.81 34.2544 Q2388.48 30.163 2392.09 28.1376 Q2395.74 26.1121 2400.47 26.1121 Q2408.29 26.1121 2412.3 30.9732 Q2416.31 35.7938 2416.31 45.1919 Z" fill="#000000" fill-rule="nonzero" fill-opacity="1" /><path clip-path="url(#clip370)" d="M2461.04 49.3643 Q2461.04 41.2625 2457.67 36.8065 Q2454.35 32.3505 2448.32 32.3505 Q2442.32 32.3505 2438.96 36.8065 Q2435.64 41.2625 2435.64 49.3643 Q2435.64 57.4256 2438.96 61.8816 Q2442.32 66.3376 2448.32 66.3376 Q2454.35 66.3376 2457.67 61.8816 Q2461.04 57.4256 2461.04 49.3643 M2468.49 66.9452 Q2468.49 78.5308 2463.34 84.1616 Q2458.2 89.8329 2447.59 89.8329 Q2443.66 89.8329 2440.17 89.2252 Q2436.69 88.6581 2433.41 87.4428 L2433.41 80.1917 Q2436.69 81.9741 2439.89 82.8248 Q2443.09 83.6755 2446.41 83.6755 Q2453.74 83.6755 2457.39 79.8271 Q2461.04 76.0193 2461.04 68.282 L2461.04 64.5957 Q2458.73 68.6061 2455.12 70.5911 Q2451.52 72.576 2446.49 72.576 Q2438.15 72.576 2433.04 66.2161 Q2427.94 59.8562 2427.94 49.3643 Q2427.94 38.832 2433.04 32.472 Q2438.15 26.1121 2446.49 26.1121 Q2451.52 26.1121 2455.12 28.0971 Q2458.73 30.082 2461.04 34.0924 L2461.04 27.2059 L2468.49 27.2059 L2468.49 66.9452 Z" fill="#000000" fill-rule="nonzero" fill-opacity="1" /><path clip-path="url(#clip370)" d="M2491.86 62.2867 L2500.09 62.2867 L2500.09 72.576 L2491.86 72.576 L2491.86 62.2867 M2499.84 56.3319 L2492.11 56.3319 L2492.11 50.0935 Q2492.11 46.0021 2493.24 43.369 Q2494.37 40.7359 2498.02 37.2521 L2501.67 33.6468 Q2503.98 31.4998 2504.99 29.5959 Q2506.04 27.692 2506.04 25.707 Q2506.04 22.1017 2503.37 19.8737 Q2500.73 17.6457 2496.36 17.6457 Q2493.16 17.6457 2489.51 19.0636 Q2485.91 20.4814 2481.98 23.1955 L2481.98 15.5798 Q2485.79 13.2708 2489.68 12.1365 Q2493.61 11.0023 2497.78 11.0023 Q2505.23 11.0023 2509.73 14.9316 Q2514.26 18.861 2514.26 25.3019 Q2514.26 28.3806 2512.81 31.1758 Q2511.35 33.9304 2507.7 37.4142 L2504.14 40.8979 Q2502.23 42.8019 2501.42 43.8956 Q2500.65 44.9488 2500.33 45.9616 Q2500.09 46.8122 2499.97 48.0275 Q2499.84 49.2428 2499.84 51.3493 L2499.84 56.3319 Z" fill="#000000" fill-rule="nonzero" fill-opacity="1" /><path clip-path="url(#clip372)" d="M393.199 475.036 L393.199 1603.12 L1505.17 1603.12 L1505.17 475.036 L393.199 475.036 L393.199 475.036  Z" fill="#009af9" fill-rule="evenodd" fill-opacity="1"/>
<polyline clip-path="url(#clip372)" style="stroke:#000000; stroke-linecap:round; stroke-linejoin:round; stroke-width:4; stroke-opacity:1; fill:none" points="393.199,475.036 393.199,1603.12 1505.17,1603.12 1505.17,475.036 393.199,475.036 "/>
<path clip-path="url(#clip372)" d="M1783.17 252.557 L1783.17 1603.12 L2895.14 1603.12 L2895.14 252.557 L1783.17 252.557 L1783.17 252.557  Z" fill="#009af9" fill-rule="evenodd" fill-opacity="1"/>
<polyline clip-path="url(#clip372)" style="stroke:#000000; stroke-linecap:round; stroke-linejoin:round; stroke-width:4; stroke-opacity:1; fill:none" points="1783.17,252.557 1783.17,1603.12 2895.14,1603.12 2895.14,252.557 1783.17,252.557 "/>
<circle clip-path="url(#clip372)" style="fill:#009af9; stroke:none; fill-opacity:0" cx="949.186" cy="475.036" r="2"/>
<circle clip-path="url(#clip372)" style="fill:#009af9; stroke:none; fill-opacity:0" cx="2339.16" cy="252.557" r="2"/>
<path clip-path="url(#clip370)" d="M1109.26 181.484 L1109.26 192.525 L1122.42 192.525 L1122.42 197.491 L1109.26 197.491 L1109.26 218.602 Q1109.26 223.359 1110.55 224.713 Q1111.86 226.067 1115.86 226.067 L1122.42 226.067 L1122.42 231.414 L1115.86 231.414 Q1108.46 231.414 1105.65 228.671 Q1102.84 225.893 1102.84 218.602 L1102.84 197.491 L1098.15 197.491 L1098.15 192.525 L1102.84 192.525 L1102.84 181.484 L1109.26 181.484 Z" fill="#000000" fill-rule="nonzero" fill-opacity="1" /><path clip-path="url(#clip370)" d="M1146.17 177.456 Q1141.52 185.442 1139.26 193.255 Q1137 201.067 1137 209.088 Q1137 217.109 1139.26 224.991 Q1141.55 232.838 1146.17 240.789 L1140.61 240.789 Q1135.41 232.629 1132.8 224.748 Q1130.23 216.866 1130.23 209.088 Q1130.23 201.345 1132.8 193.498 Q1135.37 185.651 1140.61 177.456 L1146.17 177.456 Z" fill="#000000" fill-rule="nonzero" fill-opacity="1" /><path clip-path="url(#clip370)" d="M1160.68 225.511 L1172.14 225.511 L1172.14 185.963 L1159.68 188.463 L1159.68 182.074 L1172.07 179.574 L1179.09 179.574 L1179.09 225.511 L1190.55 225.511 L1190.55 231.414 L1160.68 231.414 L1160.68 225.511 Z" fill="#000000" fill-rule="nonzero" fill-opacity="1" /><path clip-path="url(#clip370)" d="M1210.75 225.511 L1235.23 225.511 L1235.23 231.414 L1202.32 231.414 L1202.32 225.511 Q1206.31 221.38 1213.18 214.435 Q1220.09 207.456 1221.86 205.442 Q1225.23 201.657 1226.55 199.053 Q1227.91 196.414 1227.91 193.88 Q1227.91 189.748 1224.99 187.144 Q1222.11 184.539 1217.45 184.539 Q1214.16 184.539 1210.48 185.685 Q1206.83 186.831 1202.66 189.157 L1202.66 182.074 Q1206.9 180.373 1210.58 179.505 Q1214.26 178.637 1217.32 178.637 Q1225.37 178.637 1230.16 182.664 Q1234.95 186.692 1234.95 193.428 Q1234.95 196.623 1233.74 199.505 Q1232.56 202.352 1229.4 206.241 Q1228.53 207.248 1223.88 212.074 Q1219.23 216.866 1210.75 225.511 Z" fill="#000000" fill-rule="nonzero" fill-opacity="1" /><path clip-path="url(#clip370)" d="M1250.02 179.574 L1277.56 179.574 L1277.56 185.477 L1256.45 185.477 L1256.45 198.185 Q1257.98 197.664 1259.5 197.421 Q1261.03 197.144 1262.56 197.144 Q1271.24 197.144 1276.31 201.9 Q1281.38 206.657 1281.38 214.782 Q1281.38 223.15 1276.17 227.803 Q1270.96 232.421 1261.48 232.421 Q1258.22 232.421 1254.82 231.866 Q1251.45 231.31 1247.84 230.199 L1247.84 223.15 Q1250.96 224.852 1254.29 225.685 Q1257.63 226.518 1261.34 226.518 Q1267.35 226.518 1270.86 223.359 Q1274.36 220.199 1274.36 214.782 Q1274.36 209.366 1270.86 206.206 Q1267.35 203.046 1261.34 203.046 Q1258.53 203.046 1255.72 203.671 Q1252.94 204.296 1250.02 205.616 L1250.02 179.574 Z" fill="#000000" fill-rule="nonzero" fill-opacity="1" /><path clip-path="url(#clip370)" d="M1293.29 177.456 L1298.84 177.456 Q1304.05 185.651 1306.62 193.498 Q1309.23 201.345 1309.23 209.088 Q1309.23 216.866 1306.62 224.748 Q1304.05 232.629 1298.84 240.789 L1293.29 240.789 Q1297.91 232.838 1300.16 224.991 Q1302.45 217.109 1302.45 209.088 Q1302.45 201.067 1300.16 193.255 Q1297.91 185.442 1293.29 177.456 Z" fill="#000000" fill-rule="nonzero" fill-opacity="1" /><path clip-path="url(#clip370)" d="M1345.47 199.123 L1389.99 199.123 L1389.99 204.956 L1345.47 204.956 L1345.47 199.123 M1345.47 213.289 L1389.99 213.289 L1389.99 219.192 L1345.47 219.192 L1345.47 213.289 Z" fill="#000000" fill-rule="nonzero" fill-opacity="1" /><path clip-path="url(#clip370)" d="M1448.98 203.463 Q1454.02 204.539 1456.83 207.942 Q1459.68 211.345 1459.68 216.345 Q1459.68 224.018 1454.4 228.22 Q1449.12 232.421 1439.4 232.421 Q1436.13 232.421 1432.66 231.761 Q1429.22 231.136 1425.54 229.852 L1425.54 223.081 Q1428.46 224.782 1431.93 225.65 Q1435.4 226.518 1439.19 226.518 Q1445.79 226.518 1449.22 223.914 Q1452.7 221.31 1452.7 216.345 Q1452.7 211.761 1449.47 209.192 Q1446.27 206.588 1440.54 206.588 L1434.5 206.588 L1434.5 200.824 L1440.82 200.824 Q1446 200.824 1448.74 198.775 Q1451.48 196.692 1451.48 192.803 Q1451.48 188.81 1448.63 186.692 Q1445.82 184.539 1440.54 184.539 Q1437.66 184.539 1434.36 185.164 Q1431.06 185.789 1427.11 187.109 L1427.11 180.859 Q1431.1 179.748 1434.57 179.192 Q1438.08 178.637 1441.17 178.637 Q1449.15 178.637 1453.81 182.282 Q1458.46 185.894 1458.46 192.074 Q1458.46 196.38 1456 199.366 Q1453.53 202.317 1448.98 203.463 Z" fill="#000000" fill-rule="nonzero" fill-opacity="1" /><path clip-path="url(#clip370)" d="M1472.97 222.595 L1480.3 222.595 L1480.3 231.414 L1472.97 231.414 L1472.97 222.595 Z" fill="#000000" fill-rule="nonzero" fill-opacity="1" /><path clip-path="url(#clip370)" d="M1514.85 185.685 L1497.14 213.359 L1514.85 213.359 L1514.85 185.685 M1513.01 179.574 L1521.83 179.574 L1521.83 213.359 L1529.22 213.359 L1529.22 219.192 L1521.83 219.192 L1521.83 231.414 L1514.85 231.414 L1514.85 219.192 L1491.45 219.192 L1491.45 212.421 L1513.01 179.574 Z" fill="#000000" fill-rule="nonzero" fill-opacity="1" /><path clip-path="url(#clip370)" d="M1562.07 203.463 Q1567.11 204.539 1569.92 207.942 Q1572.77 211.345 1572.77 216.345 Q1572.77 224.018 1567.49 228.22 Q1562.21 232.421 1552.49 232.421 Q1549.22 232.421 1545.75 231.761 Q1542.31 231.136 1538.63 229.852 L1538.63 223.081 Q1541.55 224.782 1545.02 225.65 Q1548.49 226.518 1552.28 226.518 Q1558.88 226.518 1562.31 223.914 Q1565.79 221.31 1565.79 216.345 Q1565.79 211.761 1562.56 209.192 Q1559.36 206.588 1553.63 206.588 L1547.59 206.588 L1547.59 200.824 L1553.91 200.824 Q1559.08 200.824 1561.83 198.775 Q1564.57 196.692 1564.57 192.803 Q1564.57 188.81 1561.72 186.692 Q1558.91 184.539 1553.63 184.539 Q1550.75 184.539 1547.45 185.164 Q1544.15 185.789 1540.2 187.109 L1540.2 180.859 Q1544.19 179.748 1547.66 179.192 Q1551.17 178.637 1554.26 178.637 Q1562.24 178.637 1566.9 182.282 Q1571.55 185.894 1571.55 192.074 Q1571.55 196.38 1569.08 199.366 Q1566.62 202.317 1562.07 203.463 Z" fill="#000000" fill-rule="nonzero" fill-opacity="1" /><path clip-path="url(#clip370)" d="M1586.79 222.595 L1594.12 222.595 L1594.12 228.567 L1588.42 239.678 L1583.95 239.678 L1586.79 228.567 L1586.79 222.595 Z" fill="#000000" fill-rule="nonzero" fill-opacity="1" /><path clip-path="url(#clip370)" d="M1636.55 225.581 L1636.55 246.206 L1630.13 246.206 L1630.13 192.525 L1636.55 192.525 L1636.55 198.428 Q1638.56 194.956 1641.62 193.289 Q1644.71 191.588 1648.98 191.588 Q1656.06 191.588 1660.47 197.213 Q1664.92 202.838 1664.92 212.005 Q1664.92 221.171 1660.47 226.796 Q1656.06 232.421 1648.98 232.421 Q1644.71 232.421 1641.62 230.754 Q1638.56 229.053 1636.55 225.581 M1658.29 212.005 Q1658.29 204.956 1655.37 200.963 Q1652.49 196.935 1647.42 196.935 Q1642.35 196.935 1639.43 200.963 Q1636.55 204.956 1636.55 212.005 Q1636.55 219.053 1639.43 223.081 Q1642.35 227.074 1647.42 227.074 Q1652.49 227.074 1655.37 223.081 Q1658.29 219.053 1658.29 212.005 Z" fill="#000000" fill-rule="nonzero" fill-opacity="1" /><path clip-path="url(#clip370)" d="M1743.46 196.414 L1707.63 209.157 L1743.46 221.831 L1743.46 228.15 L1698.95 212.005 L1698.95 206.241 L1743.46 190.095 L1743.46 196.414 Z" fill="#000000" fill-rule="nonzero" fill-opacity="1" /><path clip-path="url(#clip370)" d="M1781.2 222.595 L1788.53 222.595 L1788.53 231.414 L1781.2 231.414 L1781.2 222.595 Z" fill="#000000" fill-rule="nonzero" fill-opacity="1" /><path clip-path="url(#clip370)" d="M1818.81 184.192 Q1813.39 184.192 1810.65 189.539 Q1807.94 194.852 1807.94 205.546 Q1807.94 216.206 1810.65 221.553 Q1813.39 226.866 1818.81 226.866 Q1824.26 226.866 1826.97 221.553 Q1829.71 216.206 1829.71 205.546 Q1829.71 194.852 1826.97 189.539 Q1824.26 184.192 1818.81 184.192 M1818.81 178.637 Q1827.52 178.637 1832.1 185.546 Q1836.72 192.421 1836.72 205.546 Q1836.72 218.636 1832.1 225.546 Q1827.52 232.421 1818.81 232.421 Q1810.09 232.421 1805.47 225.546 Q1800.89 218.636 1800.89 205.546 Q1800.89 192.421 1805.47 185.546 Q1810.09 178.637 1818.81 178.637 Z" fill="#000000" fill-rule="nonzero" fill-opacity="1" /><path clip-path="url(#clip370)" d="M1850.26 225.511 L1861.72 225.511 L1861.72 185.963 L1849.26 188.463 L1849.26 182.074 L1861.65 179.574 L1868.67 179.574 L1868.67 225.511 L1880.12 225.511 L1880.12 231.414 L1850.26 231.414 L1850.26 225.511 Z" fill="#000000" fill-rule="nonzero" fill-opacity="1" /><path clip-path="url(#clip370)" d="M1895.02 222.595 L1902.35 222.595 L1902.35 228.567 L1896.65 239.678 L1892.17 239.678 L1895.02 228.567 L1895.02 222.595 Z" fill="#000000" fill-rule="nonzero" fill-opacity="1" /><path clip-path="url(#clip370)" d="M1964.19 198.428 L1964.19 177.387 L1970.58 177.387 L1970.58 231.414 L1964.19 231.414 L1964.19 225.581 Q1962.17 229.053 1959.08 230.754 Q1956.03 232.421 1951.72 232.421 Q1944.67 232.421 1940.23 226.796 Q1935.82 221.171 1935.82 212.005 Q1935.82 202.838 1940.23 197.213 Q1944.67 191.588 1951.72 191.588 Q1956.03 191.588 1959.08 193.289 Q1962.17 194.956 1964.19 198.428 M1942.42 212.005 Q1942.42 219.053 1945.3 223.081 Q1948.21 227.074 1953.28 227.074 Q1958.35 227.074 1961.27 223.081 Q1964.19 219.053 1964.19 212.005 Q1964.19 204.956 1961.27 200.963 Q1958.35 196.935 1953.28 196.935 Q1948.21 196.935 1945.3 200.963 Q1942.42 204.956 1942.42 212.005 Z" fill="#000000" fill-rule="nonzero" fill-opacity="1" /><path clip-path="url(#clip370)" d="M2007.17 199.123 L2051.69 199.123 L2051.69 204.956 L2007.17 204.956 L2007.17 199.123 M2007.17 213.289 L2051.69 213.289 L2051.69 219.192 L2007.17 219.192 L2007.17 213.289 Z" fill="#000000" fill-rule="nonzero" fill-opacity="1" /><path clip-path="url(#clip370)" d="M2089.43 222.595 L2096.76 222.595 L2096.76 231.414 L2089.43 231.414 L2089.43 222.595 Z" fill="#000000" fill-rule="nonzero" fill-opacity="1" /><path clip-path="url(#clip370)" d="M2127.9 202.699 Q2123.18 202.699 2120.4 205.928 Q2117.66 209.157 2117.66 214.782 Q2117.66 220.373 2120.4 223.636 Q2123.18 226.866 2127.9 226.866 Q2132.62 226.866 2135.37 223.636 Q2138.14 220.373 2138.14 214.782 Q2138.14 209.157 2135.37 205.928 Q2132.62 202.699 2127.9 202.699 M2141.82 180.72 L2141.82 187.109 Q2139.19 185.859 2136.48 185.199 Q2133.8 184.539 2131.17 184.539 Q2124.22 184.539 2120.54 189.227 Q2116.89 193.914 2116.37 203.393 Q2118.42 200.373 2121.51 198.775 Q2124.6 197.144 2128.32 197.144 Q2136.13 197.144 2140.64 201.9 Q2145.19 206.623 2145.19 214.782 Q2145.19 222.768 2140.47 227.595 Q2135.75 232.421 2127.9 232.421 Q2118.91 232.421 2114.15 225.546 Q2109.39 218.636 2109.39 205.546 Q2109.39 193.255 2115.23 185.963 Q2121.06 178.637 2130.89 178.637 Q2133.53 178.637 2136.2 179.158 Q2138.91 179.678 2141.82 180.72 Z" fill="#000000" fill-rule="nonzero" fill-opacity="1" /><path clip-path="url(#clip370)" d="M2172.28 184.192 Q2166.86 184.192 2164.12 189.539 Q2161.41 194.852 2161.41 205.546 Q2161.41 216.206 2164.12 221.553 Q2166.86 226.866 2172.28 226.866 Q2177.73 226.866 2180.44 221.553 Q2183.18 216.206 2183.18 205.546 Q2183.18 194.852 2180.44 189.539 Q2177.73 184.192 2172.28 184.192 M2172.28 178.637 Q2180.99 178.637 2185.57 185.546 Q2190.19 192.421 2190.19 205.546 Q2190.19 218.636 2185.57 225.546 Q2180.99 232.421 2172.28 232.421 Q2163.56 232.421 2158.94 225.546 Q2154.36 218.636 2154.36 205.546 Q2154.36 192.421 2158.94 185.546 Q2163.56 178.637 2172.28 178.637 Z" fill="#000000" fill-rule="nonzero" fill-opacity="1" /></svg>
